<svg width="24" height="4" viewBox="0 0 24 4" fill="none" xmlns="http://www.w3.org/2000/svg">
<path d="M10.5 2C10.5 3.10457 9.60457 4 8.5 4C7.39543 4 6.5 3.10457 6.5 2C6.5 0.89543 7.39543 0 8.5 0C9.60457 0 10.5 0.89543 10.5 2Z" fill="white"/>
<path d="M4 2C4 3.10457 3.10457 4 2 4C0.89543 4 0 3.10457 0 2C0 0.89543 0.89543 0 2 0C3.10457 0 4 0.89543 4 2Z" fill="white"/>
<path d="M17 2C17 3.10457 16.1046 4 15 4C13.8954 4 13 3.10457 13 2C13 0.89543 13.8954 0 15 0C16.1046 0 17 0.89543 17 2Z" fill="white"/>
<path d="M23.5 2C23.5 3.10457 22.6046 4 21.5 4C20.3954 4 19.5 3.10457 19.5 2C19.5 0.89543 20.3954 0 21.5 0C22.6046 0 23.5 0.89543 23.5 2Z" fill="white"/>
</svg>
