<svg width="60" height="60" viewBox="0 0 60 60" fill="none" xmlns="http://www.w3.org/2000/svg">
<path d="M37.075 22.95C35.6765 21.5499 33.894 20.5961 31.9533 20.2096C30.0123 19.8231 28.0005 20.0213 26.1723 20.7788C24.344 21.5363 22.7816 22.8192 21.6829 24.4652C20.5842 26.111 19.9985 28.046 20 30.025C19.9979 32.6657 21.0405 35.2 22.9001 37.075" stroke="#8B8888" stroke-width="3.75" stroke-linecap="round" stroke-linejoin="round"/>
<path d="M30 40.0249C32.6522 40.0249 35.1957 38.9714 37.071 37.0959C38.9465 35.2207 40 32.6772 40 30.0249" stroke="#8B8888" stroke-width="3.75" stroke-linecap="round" stroke-linejoin="round"/>
<path d="M44.025 15.9749L15.95 44.0498C11.552 39.9913 7.85248 35.2358 5 29.9748C16.775 9.39981 31.1 4.72486 44.025 15.9749Z" stroke="#8B8888" stroke-width="3.75" stroke-linecap="round" stroke-linejoin="round"/>
<path d="M52.4984 7.5L44.0234 15.975" stroke="#8B8888" stroke-width="3.75" stroke-linecap="round" stroke-linejoin="round"/>
<path d="M15.95 44.0498L7.5 52.4998" stroke="#8B8888" stroke-width="3.75" stroke-linecap="round" stroke-linejoin="round"/>
<path d="M48.9238 21.0752C51.2003 23.8799 53.2328 26.8742 54.9988 30.0252C44.9988 47.5252 33.1738 53.5002 21.9238 48.0752" stroke="#8B8888" stroke-width="3.75" stroke-linecap="round" stroke-linejoin="round"/>
</svg>
