<svg width="24" height="24" viewBox="0 0 24 24" fill="none" xmlns="http://www.w3.org/2000/svg">
<path d="M11.7305 2.01562C11.7234 2.02734 11.6227 2.03906 11.5078 2.03906C11.393 2.03906 11.2922 2.04844 11.2852 2.0625C11.2781 2.07422 11.2195 2.08594 11.1539 2.08594C11.0906 2.08594 11.0391 2.09531 11.0391 2.10937C11.0391 2.12109 10.9969 2.13281 10.9453 2.13281C10.8938 2.13281 10.8516 2.14219 10.8516 2.15625C10.8516 2.16797 10.8211 2.17969 10.7813 2.17969C10.7438 2.17969 10.7109 2.18906 10.7109 2.20312C10.7109 2.21484 10.6805 2.22656 10.6406 2.22656C10.6031 2.22656 10.5703 2.23594 10.5703 2.25C10.5703 2.26172 10.5398 2.27344 10.5 2.27344C10.4625 2.27344 10.4297 2.28281 10.4297 2.29687C10.4297 2.30859 10.4156 2.32031 10.3969 2.32031C10.3688 2.32031 10.2938 2.35312 10.1203 2.43984C10.0969 2.45156 10.0617 2.46094 10.043 2.46094C10.0242 2.46094 10.0078 2.47031 10.0078 2.48437C10.0078 2.49609 9.99375 2.50781 9.97734 2.50781C9.96094 2.50781 9.92344 2.52891 9.89531 2.55469C9.86719 2.58047 9.82969 2.60156 9.80859 2.60156C9.78984 2.60156 9.77344 2.61094 9.77344 2.62031C9.77344 2.63203 9.74531 2.65547 9.71016 2.67422C9.67266 2.69297 9.62344 2.72578 9.6 2.74687C9.57422 2.77031 9.54609 2.78906 9.53438 2.78906C9.525 2.78906 9.48281 2.81953 9.44063 2.85937C9.40078 2.89687 9.35859 2.92969 9.34688 2.92969C9.31875 2.92969 8.69531 3.55781 8.69531 3.58828C8.69531 3.60234 8.66484 3.64453 8.625 3.67969C8.5875 3.71484 8.55469 3.75937 8.55469 3.77812C8.55469 3.79453 8.53359 3.825 8.50781 3.84375C8.48203 3.8625 8.46094 3.89297 8.46094 3.91406C8.46094 3.93516 8.43984 3.96562 8.41406 3.98437C8.38828 4.00312 8.36719 4.03594 8.36719 4.05937C8.36719 4.08281 8.35781 4.10156 8.34375 4.10156C8.33203 4.10156 8.32031 4.12266 8.32031 4.14844C8.32031 4.17422 8.31328 4.19531 8.30391 4.19531C8.28281 4.19531 8.22656 4.31016 8.22656 4.35234C8.22656 4.36875 8.21719 4.38281 8.20313 4.38281C8.19141 4.38281 8.17969 4.40391 8.17969 4.42969C8.17969 4.45547 8.17031 4.47656 8.15625 4.47656C8.14453 4.47656 8.13281 4.49766 8.13281 4.52344C8.13281 4.54922 8.12344 4.57031 8.10938 4.57031C8.09766 4.57031 8.08594 4.59609 8.08594 4.62656C8.08594 4.65937 8.07656 4.69219 8.0625 4.69922C8.05078 4.70625 8.03906 4.73437 8.03906 4.76016C8.03906 4.78359 8.02969 4.80469 8.01563 4.80469C8.00391 4.80469 7.99219 4.83516 7.99219 4.875C7.99219 4.9125 7.98281 4.94531 7.96875 4.94531C7.95703 4.94531 7.94531 4.9875 7.94531 5.03906C7.94531 5.09062 7.93594 5.13281 7.92188 5.13281C7.91016 5.13281 7.89844 5.175 7.89844 5.22656C7.89844 5.27812 7.88906 5.32031 7.875 5.32031C7.86094 5.32031 7.85156 5.38359 7.85156 5.46094C7.85156 5.53828 7.84219 5.60156 7.82813 5.60156C7.81406 5.60156 7.80469 5.70937 7.80469 5.87812C7.80469 6.06094 7.79531 6.16406 7.77656 6.18281C7.75547 6.20391 7.75547 6.21797 7.77656 6.23906C7.79531 6.25781 7.80469 6.36328 7.80469 6.55312C7.80469 6.71953 7.81406 6.84609 7.82813 6.85547C7.84219 6.8625 7.85156 6.93281 7.85156 7.01016C7.85156 7.0875 7.86094 7.14844 7.875 7.14844C7.88906 7.14844 7.89844 7.18359 7.89844 7.22812C7.89844 7.27266 7.91016 7.31719 7.92188 7.32422C7.93594 7.33125 7.94531 7.37344 7.94531 7.41797C7.94531 7.4625 7.95703 7.50469 7.96875 7.51172C7.98281 7.51875 7.99219 7.54687 7.99219 7.57266C7.99219 7.59609 8.00391 7.61719 8.01563 7.61719C8.02969 7.61719 8.03906 7.64766 8.03906 7.6875C8.03906 7.725 8.05078 7.75781 8.0625 7.75781C8.07656 7.75781 8.08594 7.78828 8.08594 7.82812C8.08594 7.86562 8.09766 7.89844 8.10938 7.89844C8.12344 7.89844 8.13281 7.91953 8.13281 7.94531C8.13281 7.97109 8.14453 7.99219 8.15625 7.99219C8.17031 7.99219 8.17969 8.01328 8.17969 8.03906C8.17969 8.06484 8.19141 8.08594 8.20313 8.08594C8.21719 8.08594 8.22656 8.10703 8.22656 8.13281C8.22656 8.15859 8.23828 8.17969 8.25 8.17969C8.26406 8.17969 8.27344 8.20078 8.27344 8.22656C8.27344 8.25234 8.28516 8.27344 8.29688 8.27344C8.31094 8.27344 8.32031 8.2875 8.32031 8.30391C8.32031 8.32031 8.34141 8.35781 8.36719 8.38594C8.39297 8.41406 8.41406 8.45156 8.41406 8.47266C8.41406 8.49141 8.42344 8.50781 8.43281 8.50781C8.44453 8.50781 8.46797 8.53594 8.48672 8.57109C8.50547 8.60859 8.53828 8.65312 8.55938 8.67422C8.58281 8.69531 8.60156 8.72344 8.60156 8.73516C8.60156 8.74922 8.62969 8.78906 8.66719 8.82656C8.70234 8.86406 8.75625 8.93203 8.78906 8.97656C8.86172 9.07969 9.22969 9.44531 9.2625 9.44531C9.27422 9.44531 9.31641 9.47578 9.35156 9.51562C9.38672 9.55312 9.42656 9.58594 9.44063 9.58594C9.45234 9.58594 9.49453 9.61875 9.53438 9.65625C9.57656 9.69609 9.62344 9.72656 9.63984 9.72656C9.65625 9.72656 9.68438 9.74766 9.70313 9.77344C9.72188 9.79922 9.75469 9.82031 9.77813 9.82031C9.80156 9.82031 9.82031 9.82969 9.82031 9.84375C9.82031 9.85547 9.83906 9.86719 9.8625 9.86719C9.88594 9.86719 9.91875 9.88828 9.9375 9.91406C9.95625 9.93984 9.98906 9.96094 10.0125 9.96094C10.0359 9.96094 10.0547 9.97031 10.0547 9.98437C10.0547 9.99609 10.0711 10.0078 10.0898 10.0078C10.1086 10.0078 10.1602 10.0289 10.207 10.0547C10.2539 10.0805 10.3102 10.1016 10.3359 10.1016C10.3617 10.1016 10.3828 10.1109 10.3828 10.125C10.3828 10.1367 10.4039 10.1484 10.4273 10.1484C10.4531 10.1484 10.4813 10.1578 10.4883 10.1719C10.4953 10.1836 10.5281 10.1953 10.5609 10.1953C10.5914 10.1953 10.6172 10.2047 10.6172 10.2187C10.6172 10.2305 10.65 10.2422 10.6875 10.2422C10.7273 10.2422 10.7578 10.2516 10.7578 10.2656C10.7578 10.2773 10.8 10.2891 10.8516 10.2891C10.9031 10.2891 10.9453 10.2984 10.9453 10.3125C10.9453 10.3242 10.9875 10.3359 11.0391 10.3359C11.0906 10.3359 11.1328 10.3453 11.1328 10.3594C11.1328 10.3734 11.1984 10.3828 11.2828 10.3828C11.3672 10.3828 11.4422 10.3922 11.4492 10.4062C11.4586 10.4203 11.6672 10.4297 12 10.4297C12.3328 10.4297 12.5414 10.4203 12.5508 10.4062C12.5578 10.3922 12.6328 10.3828 12.7172 10.3828C12.8016 10.3828 12.8672 10.3734 12.8672 10.3594C12.8672 10.3453 12.9094 10.3359 12.9609 10.3359C13.0125 10.3359 13.0547 10.3242 13.0547 10.3125C13.0547 10.2984 13.0969 10.2891 13.1484 10.2891C13.2 10.2891 13.2422 10.2773 13.2422 10.2656C13.2422 10.2516 13.275 10.2422 13.3125 10.2422C13.3523 10.2422 13.3828 10.2305 13.3828 10.2187C13.3828 10.2047 13.4086 10.1953 13.4391 10.1953C13.4719 10.1953 13.5047 10.1836 13.5117 10.1719C13.5188 10.1578 13.5469 10.1484 13.5727 10.1484C13.5961 10.1484 13.6172 10.1367 13.6172 10.125C13.6172 10.1109 13.6383 10.1016 13.6641 10.1016C13.6898 10.1016 13.7461 10.0805 13.793 10.0547C13.8398 10.0289 13.8914 10.0078 13.9102 10.0078C13.9289 10.0078 13.9453 9.99609 13.9453 9.98437C13.9453 9.97031 13.9641 9.96094 13.9875 9.96094C14.0109 9.96094 14.0438 9.93984 14.0625 9.91406C14.0813 9.88828 14.1141 9.86719 14.1375 9.86719C14.1609 9.86719 14.1797 9.85547 14.1797 9.84375C14.1797 9.82969 14.1984 9.82031 14.2219 9.82031C14.2453 9.82031 14.2781 9.79922 14.2969 9.77344C14.3156 9.74766 14.3438 9.72656 14.3602 9.72656C14.3766 9.72656 14.4234 9.69375 14.4656 9.65625C14.5055 9.61641 14.5477 9.58594 14.5594 9.58594C14.5734 9.58594 14.6133 9.55312 14.6484 9.51562C14.6836 9.47578 14.7258 9.44531 14.7375 9.44531C14.7703 9.44531 15.1383 9.07969 15.2109 8.97656C15.2438 8.93203 15.2977 8.86406 15.3328 8.82656C15.3703 8.78906 15.3984 8.74922 15.3984 8.73516C15.3984 8.72344 15.4172 8.69531 15.4406 8.67422C15.4617 8.65312 15.4945 8.60859 15.5133 8.57109C15.532 8.53594 15.5555 8.50781 15.5672 8.50781C15.5766 8.50781 15.5859 8.49141 15.5859 8.47266C15.5859 8.45156 15.607 8.41406 15.6328 8.38594C15.6586 8.35781 15.6797 8.32031 15.6797 8.30391C15.6797 8.2875 15.6914 8.27344 15.7031 8.27344C15.7172 8.27344 15.7266 8.25234 15.7266 8.22656C15.7266 8.20078 15.7383 8.17969 15.75 8.17969C15.7641 8.17969 15.7734 8.15859 15.7734 8.13281C15.7734 8.10703 15.7852 8.08594 15.7969 8.08594C15.8109 8.08594 15.8203 8.06484 15.8203 8.03906C15.8203 8.01328 15.832 7.99219 15.8438 7.99219C15.8578 7.99219 15.8672 7.97109 15.8672 7.94531C15.8672 7.91953 15.8789 7.89844 15.8906 7.89844C15.9047 7.89844 15.9141 7.86562 15.9141 7.82812C15.9141 7.78828 15.9258 7.75781 15.9375 7.75781C15.9516 7.75781 15.9609 7.725 15.9609 7.6875C15.9609 7.64766 15.9727 7.61719 15.9844 7.61719C15.9984 7.61719 16.0078 7.59609 16.0078 7.57266C16.0078 7.54687 16.0195 7.51875 16.0313 7.51172C16.0453 7.50469 16.0547 7.4625 16.0547 7.41797C16.0547 7.37344 16.0664 7.33125 16.0781 7.32422C16.0922 7.31719 16.1016 7.27266 16.1016 7.22812C16.1016 7.18359 16.1133 7.14844 16.125 7.14844C16.1391 7.14844 16.1484 7.0875 16.1484 7.01016C16.1484 6.93281 16.1602 6.8625 16.1719 6.85547C16.1859 6.84609 16.1953 6.71953 16.1953 6.55312C16.1953 6.36328 16.2047 6.25781 16.2234 6.23906C16.2445 6.21797 16.2445 6.20391 16.2234 6.18281C16.2047 6.16406 16.1953 6.06094 16.1953 5.87812C16.1953 5.70937 16.1859 5.60156 16.1719 5.60156C16.1578 5.60156 16.1484 5.53828 16.1484 5.46094C16.1484 5.38359 16.1391 5.32031 16.125 5.32031C16.1133 5.32031 16.1016 5.27812 16.1016 5.22656C16.1016 5.175 16.0922 5.13281 16.0781 5.13281C16.0664 5.13281 16.0547 5.09062 16.0547 5.03906C16.0547 4.9875 16.0453 4.94531 16.0313 4.94531C16.0195 4.94531 16.0078 4.9125 16.0078 4.875C16.0078 4.83516 15.9984 4.80469 15.9844 4.80469C15.9727 4.80469 15.9609 4.78359 15.9609 4.76016C15.9609 4.73437 15.9516 4.70625 15.9375 4.69922C15.9258 4.69219 15.9141 4.65937 15.9141 4.62656C15.9141 4.59609 15.9047 4.57031 15.8906 4.57031C15.8789 4.57031 15.8672 4.54922 15.8672 4.52344C15.8672 4.49766 15.8578 4.47656 15.8438 4.47656C15.832 4.47656 15.8203 4.45547 15.8203 4.42969C15.8203 4.40391 15.8109 4.38281 15.7969 4.38281C15.7852 4.38281 15.7734 4.36875 15.7734 4.35234C15.7734 4.31016 15.7172 4.19531 15.6984 4.19531C15.6867 4.19531 15.6797 4.17422 15.6797 4.14844C15.6797 4.12266 15.6703 4.10156 15.6563 4.10156C15.6445 4.10156 15.6328 4.08281 15.6328 4.05937C15.6328 4.03594 15.6117 4.00312 15.5859 3.98437C15.5602 3.96562 15.5391 3.93516 15.5391 3.91406C15.5391 3.89297 15.518 3.8625 15.4922 3.84375C15.4664 3.825 15.4453 3.79453 15.4453 3.77812C15.4453 3.75937 15.4148 3.71484 15.375 3.67969C15.3375 3.64453 15.3047 3.60234 15.3047 3.58828C15.3047 3.55781 14.6813 2.92969 14.6531 2.92969C14.6414 2.92969 14.6016 2.90156 14.5641 2.86406C14.5266 2.82891 14.4656 2.78672 14.4305 2.76797C14.3953 2.74922 14.3672 2.72578 14.3672 2.71406C14.3672 2.70469 14.3531 2.69531 14.3367 2.69531C14.3203 2.69531 14.2828 2.67422 14.2547 2.64844C14.2266 2.62266 14.1938 2.60156 14.1797 2.60156C14.1656 2.60156 14.1328 2.58047 14.1047 2.55469C14.0766 2.52891 14.0391 2.50781 14.0227 2.50781C14.0063 2.50781 13.9922 2.49609 13.9922 2.48437C13.9922 2.47031 13.9758 2.46094 13.957 2.46094C13.9383 2.46094 13.9031 2.45156 13.8797 2.43984C13.7063 2.35312 13.6313 2.32031 13.6031 2.32031C13.5844 2.32031 13.5703 2.30859 13.5703 2.29687C13.5703 2.28281 13.5398 2.27344 13.5 2.27344C13.4625 2.27344 13.4297 2.26172 13.4297 2.25C13.4297 2.23594 13.3992 2.22656 13.3594 2.22656C13.3219 2.22656 13.2891 2.21484 13.2891 2.20312C13.2891 2.18906 13.2586 2.17969 13.2188 2.17969C13.1813 2.17969 13.1484 2.16797 13.1484 2.15625C13.1484 2.14219 13.1063 2.13281 13.0547 2.13281C13.0031 2.13281 12.9609 2.12109 12.9609 2.10937C12.9609 2.09531 12.9094 2.08594 12.8461 2.08594C12.7805 2.08594 12.7219 2.07422 12.7148 2.0625C12.7078 2.04844 12.607 2.03906 12.4922 2.03906C12.3773 2.03906 12.2766 2.02734 12.2695 2.01562C12.2602 2.00156 12.1453 1.99219 12 1.99219C11.8547 1.99219 11.7398 2.00156 11.7305 2.01562ZM12.2461 3.51562C12.2531 3.52734 12.3234 3.53906 12.4008 3.53906C12.4781 3.53906 12.5391 3.54844 12.5391 3.5625C12.5391 3.57422 12.5813 3.58594 12.6328 3.58594C12.6844 3.58594 12.7266 3.59531 12.7266 3.60937C12.7266 3.62109 12.7594 3.63281 12.7969 3.63281C12.8367 3.63281 12.8672 3.64219 12.8672 3.65625C12.8672 3.66797 12.9 3.67969 12.9375 3.67969C12.9773 3.67969 13.0078 3.68906 13.0078 3.70312C13.0078 3.71484 13.0289 3.72656 13.0547 3.72656C13.0805 3.72656 13.1016 3.73594 13.1016 3.75C13.1016 3.76172 13.1227 3.77344 13.1484 3.77344C13.1742 3.77344 13.1953 3.78281 13.1953 3.79687C13.1953 3.80859 13.2164 3.82031 13.2422 3.82031C13.268 3.82031 13.2891 3.82969 13.2891 3.84375C13.2891 3.85547 13.3078 3.86719 13.3313 3.86719C13.3547 3.86719 13.3875 3.88828 13.4063 3.91406C13.425 3.93984 13.4555 3.96094 13.4766 3.96094C13.4977 3.96094 13.5281 3.98203 13.5469 4.00781C13.5656 4.03359 13.5938 4.05469 13.6102 4.05469C13.6453 4.05469 14.1328 4.53281 14.1328 4.56562C14.1328 4.57734 14.1656 4.61953 14.2031 4.65937C14.243 4.70156 14.2734 4.74609 14.2734 4.75781C14.2734 4.77187 14.2945 4.80469 14.3203 4.83281C14.3461 4.86094 14.3672 4.89844 14.3672 4.91484C14.3672 4.93125 14.3789 4.94531 14.3906 4.94531C14.4047 4.94531 14.4141 4.96641 14.4141 4.99219C14.4141 5.01797 14.4258 5.03906 14.4375 5.03906C14.4516 5.03906 14.4609 5.06016 14.4609 5.08594C14.4609 5.11172 14.4727 5.13281 14.4844 5.13281C14.4984 5.13281 14.5078 5.16328 14.5078 5.20312C14.5078 5.24062 14.5195 5.27344 14.5313 5.27344C14.5453 5.27344 14.5547 5.29453 14.5547 5.31797C14.5547 5.34375 14.5664 5.37187 14.5781 5.37891C14.5922 5.38594 14.6016 5.43047 14.6016 5.475C14.6016 5.51953 14.6133 5.55469 14.625 5.55469C14.6391 5.55469 14.6484 5.59687 14.6484 5.64844C14.6484 5.7 14.6602 5.74219 14.6719 5.74219C14.6859 5.74219 14.6953 5.83594 14.6953 5.97656C14.6953 6.14297 14.7023 6.21094 14.7234 6.21094C14.7445 6.21094 14.7445 6.21797 14.7234 6.23906C14.7047 6.25781 14.6953 6.34687 14.6953 6.48281C14.6953 6.60234 14.6859 6.70781 14.6719 6.71484C14.6602 6.72187 14.6484 6.77109 14.6484 6.82266C14.6484 6.87187 14.6391 6.91406 14.625 6.91406C14.6133 6.91406 14.6016 6.94453 14.6016 6.98437C14.6016 7.02187 14.5922 7.05469 14.5781 7.05469C14.5664 7.05469 14.5547 7.08516 14.5547 7.125C14.5547 7.1625 14.5453 7.19531 14.5313 7.19531C14.5195 7.19531 14.5078 7.21641 14.5078 7.24219C14.5078 7.26797 14.4984 7.28906 14.4844 7.28906C14.4727 7.28906 14.4609 7.31016 14.4609 7.33594C14.4609 7.36172 14.4516 7.38281 14.4375 7.38281C14.4258 7.38281 14.4141 7.39687 14.4141 7.41328C14.4141 7.45547 14.3578 7.57031 14.3391 7.57031C14.3273 7.57031 14.3203 7.58906 14.3203 7.6125C14.3203 7.63594 14.2992 7.66875 14.2734 7.6875C14.2477 7.70625 14.2266 7.73672 14.2266 7.75312C14.2266 7.77187 14.1961 7.81641 14.1563 7.85156C14.1188 7.88672 14.0859 7.92891 14.0859 7.94297C14.0859 7.97344 13.7391 8.32031 13.7086 8.32031C13.6945 8.32031 13.6523 8.35078 13.6172 8.39062C13.582 8.42812 13.5398 8.46094 13.5258 8.46094C13.5094 8.46094 13.4766 8.48203 13.4484 8.50781C13.4203 8.53359 13.3828 8.55469 13.3664 8.55469C13.35 8.55469 13.3359 8.56406 13.3359 8.57812C13.3359 8.58984 13.3148 8.60156 13.2891 8.60156C13.2633 8.60156 13.2422 8.61094 13.2422 8.625C13.2422 8.63672 13.2211 8.64844 13.1953 8.64844C13.1695 8.64844 13.1484 8.65781 13.1484 8.67187C13.1484 8.68359 13.1273 8.69531 13.1016 8.69531C13.0758 8.69531 13.0547 8.70469 13.0547 8.71875C13.0547 8.73047 13.0289 8.74219 12.9984 8.74219C12.9656 8.74219 12.9328 8.75156 12.9258 8.76562C12.9188 8.77734 12.8906 8.78906 12.8648 8.78906C12.8414 8.78906 12.8203 8.79844 12.8203 8.8125C12.8203 8.82422 12.7781 8.83594 12.7266 8.83594C12.675 8.83594 12.6328 8.84531 12.6328 8.85937C12.6328 8.87109 12.5813 8.88281 12.5156 8.88281C12.4523 8.88281 12.3984 8.89219 12.3984 8.90625C12.3984 8.92031 12.2508 8.92969 12 8.92969C11.7492 8.92969 11.6016 8.92031 11.6016 8.90625C11.6016 8.89219 11.55 8.88281 11.4844 8.88281C11.4211 8.88281 11.3672 8.87109 11.3672 8.85937C11.3672 8.84531 11.325 8.83594 11.2734 8.83594C11.2219 8.83594 11.1797 8.82422 11.1797 8.8125C11.1797 8.79844 11.1586 8.78906 11.1352 8.78906C11.1094 8.78906 11.0813 8.77734 11.0742 8.76562C11.0672 8.75156 11.0344 8.74219 11.0016 8.74219C10.9711 8.74219 10.9453 8.73047 10.9453 8.71875C10.9453 8.70469 10.9242 8.69531 10.8984 8.69531C10.8727 8.69531 10.8516 8.68359 10.8516 8.67187C10.8516 8.65781 10.8305 8.64844 10.8047 8.64844C10.7789 8.64844 10.7578 8.63672 10.7578 8.625C10.7578 8.61094 10.7367 8.60156 10.7109 8.60156C10.6852 8.60156 10.6641 8.58984 10.6641 8.57812C10.6641 8.56406 10.65 8.55469 10.6336 8.55469C10.6172 8.55469 10.5797 8.53359 10.5516 8.50781C10.5234 8.48203 10.4906 8.46094 10.4742 8.46094C10.4602 8.46094 10.418 8.42812 10.3828 8.39062C10.3477 8.35078 10.3055 8.32031 10.2914 8.32031C10.2609 8.32031 9.91406 7.97344 9.91406 7.94297C9.91406 7.92891 9.88359 7.88672 9.84375 7.85156C9.80625 7.81641 9.77344 7.77187 9.77344 7.75312C9.77344 7.73672 9.75234 7.70625 9.72656 7.6875C9.70078 7.66875 9.67969 7.63594 9.67969 7.6125C9.67969 7.58906 9.67266 7.57031 9.66328 7.57031C9.64219 7.57031 9.58594 7.45547 9.58594 7.41328C9.58594 7.39687 9.57656 7.38281 9.5625 7.38281C9.55078 7.38281 9.53906 7.36172 9.53906 7.33594C9.53906 7.31016 9.52969 7.28906 9.51563 7.28906C9.50391 7.28906 9.49219 7.26797 9.49219 7.24219C9.49219 7.21641 9.48281 7.19531 9.46875 7.19531C9.45703 7.19531 9.44531 7.1625 9.44531 7.125C9.44531 7.08516 9.43594 7.05469 9.42188 7.05469C9.41016 7.05469 9.39844 7.02187 9.39844 6.98437C9.39844 6.94453 9.38906 6.91406 9.375 6.91406C9.36328 6.91406 9.35156 6.87187 9.35156 6.82266C9.35156 6.77109 9.34219 6.72187 9.32813 6.71484C9.31641 6.70781 9.30469 6.60234 9.30469 6.48281C9.30469 6.34687 9.29531 6.25781 9.27656 6.23906C9.25547 6.21797 9.25547 6.21094 9.27656 6.21094C9.29766 6.21094 9.30469 6.14297 9.30469 5.97656C9.30469 5.83594 9.31406 5.74219 9.32813 5.74219C9.34219 5.74219 9.35156 5.7 9.35156 5.64844C9.35156 5.59687 9.36328 5.55469 9.375 5.55469C9.38906 5.55469 9.39844 5.51953 9.39844 5.475C9.39844 5.43047 9.41016 5.38594 9.42188 5.37891C9.43594 5.37187 9.44531 5.34375 9.44531 5.31797C9.44531 5.29453 9.45703 5.27344 9.46875 5.27344C9.48281 5.27344 9.49219 5.24062 9.49219 5.20312C9.49219 5.16328 9.50391 5.13281 9.51563 5.13281C9.52969 5.13281 9.53906 5.11172 9.53906 5.08594C9.53906 5.06016 9.55078 5.03906 9.5625 5.03906C9.57656 5.03906 9.58594 5.01797 9.58594 4.99219C9.58594 4.96641 9.59766 4.94531 9.60938 4.94531C9.62344 4.94531 9.63281 4.93125 9.63281 4.91484C9.63281 4.89844 9.65391 4.86094 9.67969 4.83281C9.70547 4.80469 9.72656 4.77187 9.72656 4.75781C9.72656 4.74609 9.75938 4.70156 9.79688 4.65937C9.83672 4.61953 9.86719 4.57734 9.86719 4.56562C9.86719 4.53281 10.3547 4.05469 10.3898 4.05469C10.4063 4.05469 10.4344 4.03359 10.4531 4.00781C10.4719 3.98203 10.5023 3.96094 10.5234 3.96094C10.5445 3.96094 10.575 3.93984 10.5938 3.91406C10.6125 3.88828 10.6453 3.86719 10.6688 3.86719C10.6922 3.86719 10.7109 3.85547 10.7109 3.84375C10.7109 3.82969 10.732 3.82031 10.7578 3.82031C10.7836 3.82031 10.8047 3.80859 10.8047 3.79687C10.8047 3.78281 10.8258 3.77344 10.8516 3.77344C10.8773 3.77344 10.8984 3.76172 10.8984 3.75C10.8984 3.73594 10.9195 3.72656 10.9453 3.72656C10.9711 3.72656 10.9922 3.71484 10.9922 3.70312C10.9922 3.68906 11.025 3.67969 11.0625 3.67969C11.1023 3.67969 11.1328 3.66797 11.1328 3.65625C11.1328 3.64219 11.1656 3.63281 11.2031 3.63281C11.243 3.63281 11.2734 3.62109 11.2734 3.60937C11.2734 3.59531 11.3156 3.58594 11.3672 3.58594C11.4188 3.58594 11.4609 3.57422 11.4609 3.5625C11.4609 3.54844 11.5219 3.53906 11.5992 3.53906C11.6766 3.53906 11.7469 3.52734 11.7539 3.51562C11.7609 3.50156 11.8711 3.49219 12 3.49219C12.1289 3.49219 12.2391 3.50156 12.2461 3.51562Z" fill="none"/>
<path d="M4.28921 5.90606C4.28921 5.92012 4.22593 5.92949 4.14858 5.92949C4.07124 5.92949 4.00796 5.93887 4.00796 5.95293C4.00796 5.96465 3.96577 5.97637 3.91421 5.97637C3.86265 5.97637 3.82046 5.98574 3.82046 5.99981C3.82046 6.01152 3.78999 6.02324 3.75015 6.02324C3.71265 6.02324 3.67983 6.03262 3.67983 6.04668C3.67983 6.0584 3.64937 6.07012 3.60952 6.07012C3.57202 6.07012 3.53921 6.07949 3.53921 6.09356C3.53921 6.10527 3.50874 6.11699 3.4689 6.11699C3.4314 6.11699 3.39858 6.12637 3.39858 6.14043C3.39858 6.15215 3.37749 6.16387 3.35171 6.16387C3.32593 6.16387 3.30483 6.17324 3.30483 6.18731C3.30483 6.19902 3.28374 6.21074 3.25796 6.21074C3.23218 6.21074 3.21108 6.22012 3.21108 6.23418C3.21108 6.2459 3.19233 6.25762 3.1689 6.25762C3.14546 6.25762 3.11265 6.27871 3.0939 6.30449C3.07515 6.33027 3.04233 6.35137 3.0189 6.35137C2.99546 6.35137 2.97671 6.36074 2.97671 6.37481C2.97671 6.38652 2.9603 6.39824 2.93921 6.39824C2.91812 6.39824 2.87124 6.42871 2.83608 6.46856C2.80093 6.50606 2.75874 6.53887 2.74468 6.53887C2.70952 6.53887 2.17983 7.06855 2.17983 7.10371C2.17983 7.11777 2.14937 7.15996 2.10952 7.19512C2.07202 7.23027 2.03921 7.27715 2.03921 7.29824C2.03921 7.31934 2.02983 7.33574 2.01577 7.33574C2.00405 7.33574 1.99233 7.35449 1.99233 7.37793C1.99233 7.40137 1.97124 7.43418 1.94546 7.45293C1.91968 7.47168 1.89858 7.50449 1.89858 7.52793C1.89858 7.55137 1.88921 7.57012 1.87515 7.57012C1.86343 7.57012 1.85171 7.59121 1.85171 7.61699C1.85171 7.64277 1.84233 7.66387 1.82827 7.66387C1.81655 7.66387 1.80483 7.68496 1.80483 7.71074C1.80483 7.73652 1.79546 7.75762 1.7814 7.75762C1.76968 7.75762 1.75796 7.78809 1.75796 7.82793C1.75796 7.86543 1.74858 7.89824 1.73452 7.89824C1.7228 7.89824 1.71108 7.91934 1.71108 7.94277C1.71108 7.96855 1.70171 7.99668 1.68765 8.00371C1.67593 8.01074 1.66421 8.05527 1.66421 8.0998C1.66421 8.14434 1.65483 8.17949 1.64077 8.17949C1.62905 8.17949 1.61733 8.22168 1.61733 8.27324C1.61733 8.3248 1.60796 8.36699 1.5939 8.36699C1.58218 8.36699 1.57046 8.42324 1.57046 8.49355C1.57046 8.56387 1.56108 8.62949 1.54702 8.63652C1.51655 8.65527 1.51655 9.46152 1.54702 9.48027C1.56108 9.4873 1.57046 9.55059 1.57046 9.6209C1.57046 9.69121 1.58218 9.75449 1.5939 9.76152C1.60796 9.76855 1.61733 9.81074 1.61733 9.85527C1.61733 9.8998 1.62905 9.94199 1.64077 9.94902C1.65483 9.95605 1.66421 9.99355 1.66421 10.0334C1.66421 10.0709 1.67593 10.1014 1.68765 10.1014C1.70171 10.1014 1.71108 10.1271 1.71108 10.1576C1.71108 10.1904 1.7228 10.2232 1.73452 10.2303C1.74858 10.2373 1.75796 10.2654 1.75796 10.2912C1.75796 10.3146 1.76968 10.3357 1.7814 10.3357C1.79546 10.3357 1.80483 10.3568 1.80483 10.3826C1.80483 10.4084 1.81655 10.4295 1.82827 10.4295C1.84233 10.4295 1.85171 10.4506 1.85171 10.4764C1.85171 10.5021 1.86343 10.5232 1.87515 10.5232C1.88921 10.5232 1.89858 10.5443 1.89858 10.5701C1.89858 10.5959 1.9103 10.617 1.92202 10.617C1.93608 10.617 1.94546 10.6357 1.94546 10.6592C1.94546 10.6826 1.96655 10.7154 1.99233 10.7342C2.01812 10.7529 2.03921 10.7834 2.03921 10.8045C2.03921 10.8256 2.0603 10.8561 2.08608 10.8748C2.11187 10.8936 2.13296 10.9217 2.13296 10.9381C2.13296 10.9568 2.17983 11.0154 2.23608 11.074C2.29233 11.1303 2.35796 11.2076 2.37905 11.2451C2.40249 11.2826 2.45171 11.3318 2.48921 11.3553C2.52671 11.3764 2.60405 11.442 2.6603 11.4982C2.7189 11.5545 2.77515 11.6014 2.78921 11.6014C2.80327 11.6014 2.84546 11.6318 2.88765 11.6717C2.92749 11.7092 2.97437 11.742 2.99077 11.742C3.00952 11.742 3.02358 11.7514 3.02358 11.7654C3.02358 11.7771 3.04468 11.7889 3.07046 11.7889C3.09624 11.7889 3.11733 11.7959 3.11733 11.8053C3.11733 11.8264 3.23218 11.8826 3.27437 11.8826C3.29077 11.8826 3.30483 11.892 3.30483 11.9061C3.30483 11.9178 3.32593 11.9295 3.35171 11.9295C3.37749 11.9295 3.39858 11.9389 3.39858 11.9529C3.39858 11.9646 3.41968 11.9764 3.44546 11.9764C3.47124 11.9764 3.49233 11.9857 3.49233 11.9998C3.49233 12.0115 3.52515 12.0232 3.56265 12.0232C3.60249 12.0232 3.63296 12.0326 3.63296 12.0467C3.63296 12.0584 3.66577 12.0701 3.70327 12.0701C3.74312 12.0701 3.77358 12.0795 3.77358 12.0936C3.77358 12.1053 3.81577 12.117 3.86733 12.117C3.9189 12.117 3.96108 12.1264 3.96108 12.1404C3.96108 12.1521 4.01265 12.1639 4.07593 12.1639C4.14155 12.1639 4.20015 12.1732 4.20718 12.1873C4.22593 12.2201 5.17983 12.2201 5.17983 12.1873C5.17983 12.1732 5.23374 12.1639 5.29702 12.1639C5.36265 12.1639 5.41421 12.1521 5.41421 12.1404C5.41421 12.1264 5.4564 12.117 5.50796 12.117C5.55952 12.117 5.60171 12.1053 5.60171 12.0936C5.60171 12.0795 5.63452 12.0701 5.67202 12.0701C5.71187 12.0701 5.74233 12.0584 5.74233 12.0467C5.74233 12.0326 5.77515 12.0232 5.81265 12.0232C5.85249 12.0232 5.88296 12.0115 5.88296 11.9998C5.88296 11.9857 5.89937 11.9764 5.91812 11.9764C5.93687 11.9764 5.98843 11.9553 6.0353 11.9295C6.08218 11.9037 6.1314 11.8826 6.1478 11.8826C6.16421 11.8826 6.20171 11.8615 6.22983 11.8357C6.25796 11.81 6.29546 11.7889 6.31655 11.7889C6.3353 11.7889 6.35171 11.7771 6.35171 11.7654C6.35171 11.7514 6.36577 11.742 6.38218 11.742C6.39624 11.742 6.4478 11.7092 6.49233 11.6717C6.53687 11.6342 6.58374 11.6014 6.59312 11.6014C6.60483 11.6014 6.64233 11.5709 6.67515 11.5357C6.7103 11.5006 6.77593 11.4443 6.82046 11.4139C6.92358 11.3412 6.98218 11.2826 7.05483 11.1795C7.0853 11.135 7.14155 11.0693 7.17671 11.0342C7.21187 11.0014 7.24233 10.9639 7.24233 10.9521C7.24233 10.9428 7.27515 10.8959 7.31265 10.8514C7.35015 10.8068 7.38296 10.7553 7.38296 10.7389C7.38296 10.7248 7.39468 10.7107 7.4064 10.7107C7.42046 10.7107 7.42983 10.6896 7.42983 10.6639C7.42983 10.6381 7.43687 10.617 7.44858 10.617C7.46733 10.617 7.52358 10.5021 7.52358 10.46C7.52358 10.4436 7.5353 10.4295 7.54702 10.4295C7.56108 10.4295 7.57046 10.4084 7.57046 10.3826C7.57046 10.3568 7.58218 10.3357 7.5939 10.3357C7.60796 10.3357 7.61733 10.3146 7.61733 10.2889C7.61733 10.2631 7.62905 10.242 7.64077 10.242C7.65483 10.242 7.66421 10.2092 7.66421 10.1717C7.66421 10.1318 7.67593 10.1014 7.68765 10.1014C7.70171 10.1014 7.71108 10.0686 7.71108 10.0311C7.71108 9.99121 7.7228 9.96074 7.73452 9.96074C7.74858 9.96074 7.75796 9.91855 7.75796 9.86699C7.75796 9.81543 7.76968 9.77324 7.7814 9.77324C7.79546 9.77324 7.80483 9.71699 7.80483 9.64668C7.80483 9.57637 7.81655 9.51074 7.82827 9.50371C7.84233 9.49434 7.85171 9.31621 7.85171 9.04434C7.85171 8.76543 7.84233 8.60137 7.82827 8.60137C7.81421 8.60137 7.80483 8.53809 7.80483 8.46074C7.80483 8.3834 7.79546 8.32012 7.7814 8.32012C7.76968 8.32012 7.75796 8.27793 7.75796 8.22637C7.75796 8.1748 7.74858 8.13262 7.73452 8.13262C7.7228 8.13262 7.71108 8.0998 7.71108 8.0623C7.71108 8.02246 7.70171 7.99199 7.68765 7.99199C7.67593 7.99199 7.66421 7.96621 7.66421 7.93574C7.66421 7.90293 7.65483 7.87012 7.64077 7.86309C7.62905 7.85605 7.61733 7.82793 7.61733 7.80215C7.61733 7.77871 7.60796 7.75762 7.5939 7.75762C7.58218 7.75762 7.57046 7.73652 7.57046 7.71074C7.57046 7.68496 7.56108 7.66387 7.54702 7.66387C7.5353 7.66387 7.52358 7.64277 7.52358 7.61699C7.52358 7.59121 7.51421 7.57012 7.50015 7.57012C7.48843 7.57012 7.47671 7.54902 7.47671 7.52324C7.47671 7.49746 7.46733 7.47637 7.45327 7.47637C7.44155 7.47637 7.42983 7.4623 7.42983 7.4459C7.42983 7.42949 7.40874 7.39199 7.38296 7.36387C7.35718 7.33574 7.33608 7.30059 7.33608 7.28418C7.33608 7.26543 7.31499 7.2373 7.28921 7.21855C7.26343 7.1998 7.24233 7.17168 7.24233 7.15527C7.24233 7.12012 6.66812 6.53887 6.63296 6.53887C6.61655 6.53887 6.57437 6.50606 6.53921 6.46856C6.50405 6.42871 6.45718 6.39824 6.43608 6.39824C6.41499 6.39824 6.39858 6.38652 6.39858 6.37481C6.39858 6.36074 6.38452 6.35137 6.36812 6.35137C6.35171 6.35137 6.31421 6.33027 6.28608 6.30449C6.25796 6.27871 6.22046 6.25762 6.19937 6.25762C6.18062 6.25762 6.16421 6.2459 6.16421 6.23418C6.16421 6.22012 6.14312 6.21074 6.11733 6.21074C6.09155 6.21074 6.07046 6.19902 6.07046 6.18731C6.07046 6.17324 6.04937 6.16387 6.02358 6.16387C5.9978 6.16387 5.97671 6.15215 5.97671 6.14043C5.97671 6.12637 5.94624 6.11699 5.9064 6.11699C5.8689 6.11699 5.83608 6.10527 5.83608 6.09356C5.83608 6.07949 5.8103 6.07012 5.77983 6.07012C5.74702 6.07012 5.71421 6.0584 5.70718 6.04668C5.70015 6.03262 5.66265 6.02324 5.6228 6.02324C5.5853 6.02324 5.55483 6.01152 5.55483 5.99981C5.55483 5.98574 5.51265 5.97637 5.46108 5.97637C5.40952 5.97637 5.36733 5.96465 5.36733 5.95293C5.36733 5.93887 5.30405 5.92949 5.22671 5.92949C5.14937 5.92949 5.08608 5.92012 5.08608 5.90606C5.08608 5.89199 4.93843 5.88262 4.68765 5.88262C4.43687 5.88262 4.28921 5.89199 4.28921 5.90606ZM4.89858 7.40605C4.89858 7.41777 4.95249 7.42949 5.01577 7.42949C5.0814 7.42949 5.13296 7.43887 5.13296 7.45293C5.13296 7.46465 5.16577 7.47637 5.20327 7.47637C5.24312 7.47637 5.27358 7.48574 5.27358 7.4998C5.27358 7.51152 5.29468 7.52324 5.32046 7.52324C5.34624 7.52324 5.36733 7.53262 5.36733 7.54668C5.36733 7.5584 5.38843 7.57012 5.41421 7.57012C5.43999 7.57012 5.46108 7.57949 5.46108 7.59355C5.46108 7.60527 5.48218 7.61699 5.50796 7.61699C5.53374 7.61699 5.55483 7.62637 5.55483 7.63574C5.55483 7.64746 5.58296 7.6709 5.62046 7.68965C5.70483 7.73418 6.07046 8.10449 6.07046 8.14668C6.07046 8.16543 6.08218 8.17949 6.0939 8.17949C6.10796 8.17949 6.11733 8.20059 6.11733 8.22637C6.11733 8.25215 6.12905 8.27324 6.14077 8.27324C6.15483 8.27324 6.16421 8.29434 6.16421 8.32012C6.16421 8.3459 6.17593 8.36699 6.18765 8.36699C6.20171 8.36699 6.21108 8.38809 6.21108 8.41387C6.21108 8.43965 6.2228 8.46074 6.23452 8.46074C6.24858 8.46074 6.25796 8.49121 6.25796 8.53105C6.25796 8.56855 6.26968 8.60137 6.2814 8.60137C6.29546 8.60137 6.30483 8.63184 6.30483 8.67168C6.30483 8.70918 6.31655 8.74199 6.32827 8.74199C6.34233 8.74199 6.35171 8.85918 6.35171 9.04668C6.35171 9.23418 6.34233 9.35137 6.32827 9.35137C6.31655 9.35137 6.30483 9.38184 6.30483 9.41934C6.30483 9.45918 6.29546 9.49668 6.2814 9.50371C6.26968 9.51074 6.25796 9.54824 6.25796 9.58574C6.25796 9.62324 6.24858 9.66074 6.23452 9.66777C6.2228 9.6748 6.21108 9.69824 6.21108 9.71699C6.21108 9.73574 6.18999 9.77324 6.16421 9.80137C6.13843 9.82949 6.11733 9.86699 6.11733 9.8834C6.11733 9.8998 6.10796 9.91387 6.0939 9.91387C6.08218 9.91387 6.07046 9.93027 6.07046 9.94902C6.07046 9.96777 6.02827 10.0287 5.97671 10.0803C5.92515 10.1342 5.88296 10.1928 5.88296 10.2092C5.88296 10.2279 5.8689 10.242 5.85015 10.242C5.83374 10.242 5.77749 10.2818 5.72593 10.3287C5.62983 10.4225 5.52437 10.4928 5.4564 10.5162C5.43296 10.5232 5.41421 10.5373 5.41421 10.549C5.41421 10.5607 5.39312 10.5701 5.36733 10.5701C5.34155 10.5701 5.32046 10.5795 5.32046 10.5936C5.32046 10.6053 5.28999 10.617 5.25249 10.617C5.21265 10.617 5.17515 10.6264 5.16812 10.6404C5.16108 10.6521 5.12358 10.6639 5.08608 10.6639C5.04858 10.6639 5.01108 10.6732 5.00405 10.6873C4.99468 10.7014 4.86343 10.7107 4.6853 10.7107C4.50015 10.7107 4.38296 10.7014 4.38296 10.6873C4.38296 10.6732 4.35249 10.6639 4.31499 10.6639C4.27515 10.6639 4.23765 10.6521 4.23062 10.6404C4.22358 10.6264 4.17905 10.617 4.13452 10.617C4.08999 10.617 4.05483 10.6076 4.05483 10.5959C4.05483 10.5842 4.03608 10.5701 4.01499 10.5631C3.95874 10.5443 3.83452 10.4693 3.82515 10.4459C3.82046 10.4365 3.80171 10.4295 3.78062 10.4295C3.76187 10.4295 3.70562 10.3873 3.6564 10.3357C3.60718 10.2842 3.55562 10.242 3.53921 10.242C3.52515 10.242 3.5064 10.2232 3.49937 10.1998C3.48999 10.1787 3.44312 10.1201 3.3939 10.0732C3.34468 10.0264 3.30483 9.97012 3.30483 9.95137C3.30483 9.93027 3.29546 9.91387 3.2814 9.91387C3.26968 9.91387 3.25796 9.89277 3.25796 9.86699C3.25796 9.84121 3.25093 9.82012 3.24155 9.82012C3.22046 9.82012 3.16421 9.70527 3.16421 9.66309C3.16421 9.64668 3.15483 9.63262 3.14077 9.63262C3.12905 9.63262 3.11733 9.5998 3.11733 9.5623C3.11733 9.52246 3.10796 9.49199 3.0939 9.49199C3.08218 9.49199 3.07046 9.4498 3.07046 9.39824C3.07046 9.34668 3.06108 9.30449 3.04702 9.30449C3.03296 9.30449 3.02358 9.2084 3.02358 9.06074C3.02358 8.92246 3.03296 8.80762 3.04702 8.80059C3.06108 8.79355 3.07046 8.74434 3.07046 8.69277C3.07046 8.64355 3.08218 8.60137 3.0939 8.60137C3.10796 8.60137 3.11733 8.56855 3.11733 8.53105C3.11733 8.49121 3.12905 8.46074 3.14077 8.46074C3.15483 8.46074 3.16421 8.43965 3.16421 8.41387C3.16421 8.38809 3.17593 8.36699 3.18765 8.36699C3.20171 8.36699 3.21108 8.3459 3.21108 8.32012C3.21108 8.29434 3.2228 8.27324 3.23452 8.27324C3.24858 8.27324 3.25796 8.25449 3.25796 8.23105C3.25796 8.20762 3.27905 8.1748 3.30483 8.15605C3.33062 8.1373 3.35171 8.10918 3.35171 8.09043C3.35171 8.05293 3.69624 7.71074 3.73608 7.71074C3.75015 7.71074 3.77827 7.68965 3.79702 7.66387C3.81577 7.63809 3.84858 7.61699 3.87202 7.61699C3.89546 7.61699 3.91421 7.60527 3.91421 7.59355C3.91421 7.57949 3.9353 7.57012 3.96108 7.57012C3.98687 7.57012 4.00796 7.5584 4.00796 7.54668C4.00796 7.53262 4.02905 7.52324 4.05483 7.52324C4.08062 7.52324 4.10171 7.51152 4.10171 7.4998C4.10171 7.48574 4.13218 7.47637 4.16968 7.47637C4.20952 7.47637 4.24702 7.46465 4.25405 7.45293C4.26108 7.43887 4.31499 7.42949 4.37358 7.42949C4.42983 7.42949 4.47671 7.41777 4.47671 7.40605C4.47671 7.39199 4.56343 7.38262 4.68765 7.38262C4.81187 7.38262 4.89858 7.39199 4.89858 7.40605Z" fill="none"/>
<path d="M18.9141 5.90606C18.9141 5.92012 18.8508 5.92949 18.7734 5.92949C18.6961 5.92949 18.6328 5.93887 18.6328 5.95293C18.6328 5.96465 18.5906 5.97637 18.5391 5.97637C18.4875 5.97637 18.4453 5.98574 18.4453 5.99981C18.4453 6.01152 18.4148 6.02324 18.3773 6.02324C18.3375 6.02324 18.3 6.03262 18.293 6.04668C18.2859 6.0584 18.2531 6.07012 18.2203 6.07012C18.1898 6.07012 18.1641 6.07949 18.1641 6.09356C18.1641 6.10527 18.1336 6.11699 18.0938 6.11699C18.0563 6.11699 18.0234 6.12637 18.0234 6.14043C18.0234 6.15215 18.0023 6.16387 17.9766 6.16387C17.9508 6.16387 17.9297 6.17324 17.9297 6.18731C17.9297 6.19902 17.9086 6.21074 17.8828 6.21074C17.857 6.21074 17.8359 6.22012 17.8359 6.23418C17.8359 6.2459 17.8195 6.25762 17.8008 6.25762C17.7797 6.25762 17.7422 6.27871 17.7141 6.30449C17.6859 6.33027 17.6484 6.35137 17.632 6.35137C17.6156 6.35137 17.6016 6.36074 17.6016 6.37481C17.6016 6.38652 17.5852 6.39824 17.5641 6.39824C17.543 6.39824 17.4961 6.42871 17.4609 6.46856C17.4258 6.50606 17.3836 6.53887 17.3672 6.53887C17.332 6.53887 16.7578 7.12012 16.7578 7.15527C16.7578 7.17168 16.7367 7.1998 16.7109 7.21855C16.6852 7.2373 16.6641 7.26543 16.6641 7.28418C16.6641 7.30059 16.643 7.33574 16.6172 7.36387C16.5914 7.39199 16.5703 7.42949 16.5703 7.4459C16.5703 7.4623 16.5609 7.47637 16.5469 7.47637C16.5352 7.47637 16.5234 7.49746 16.5234 7.52324C16.5234 7.54902 16.5141 7.57012 16.5 7.57012C16.4883 7.57012 16.4766 7.59121 16.4766 7.61699C16.4766 7.64277 16.4672 7.66387 16.4531 7.66387C16.4414 7.66387 16.4297 7.68496 16.4297 7.71074C16.4297 7.73652 16.4203 7.75762 16.4063 7.75762C16.3945 7.75762 16.3828 7.77871 16.3828 7.80215C16.3828 7.82793 16.3734 7.85605 16.3594 7.86309C16.3477 7.87012 16.3359 7.90293 16.3359 7.93574C16.3359 7.96621 16.3266 7.99199 16.3125 7.99199C16.3008 7.99199 16.2891 8.02246 16.2891 8.0623C16.2891 8.0998 16.2797 8.13262 16.2656 8.13262C16.2539 8.13262 16.2422 8.1748 16.2422 8.22637C16.2422 8.27793 16.2328 8.32012 16.2188 8.32012C16.2047 8.32012 16.1953 8.3834 16.1953 8.46074C16.1953 8.53809 16.1859 8.60137 16.1719 8.60137C16.1578 8.60137 16.1484 8.76543 16.1484 9.04434C16.1484 9.31621 16.1578 9.49434 16.1719 9.50371C16.1859 9.51074 16.1953 9.57637 16.1953 9.64668C16.1953 9.71699 16.207 9.77324 16.2188 9.77324C16.2328 9.77324 16.2422 9.81543 16.2422 9.86699C16.2422 9.91855 16.2539 9.96074 16.2656 9.96074C16.2797 9.96074 16.2891 9.99121 16.2891 10.0311C16.2891 10.0686 16.3008 10.1014 16.3125 10.1014C16.3266 10.1014 16.3359 10.1318 16.3359 10.1717C16.3359 10.2092 16.3477 10.242 16.3594 10.242C16.3734 10.242 16.3828 10.2631 16.3828 10.2889C16.3828 10.3146 16.3945 10.3357 16.4063 10.3357C16.4203 10.3357 16.4297 10.3568 16.4297 10.3826C16.4297 10.4084 16.4414 10.4295 16.4531 10.4295C16.4672 10.4295 16.4766 10.4436 16.4766 10.46C16.4766 10.5021 16.5328 10.617 16.5539 10.617C16.5633 10.617 16.5703 10.6381 16.5703 10.6639C16.5703 10.6896 16.582 10.7107 16.5938 10.7107C16.6078 10.7107 16.6172 10.7248 16.6172 10.7389C16.6172 10.7553 16.65 10.8068 16.6875 10.8514C16.725 10.8959 16.7578 10.9428 16.7578 10.9521C16.7578 10.9639 16.7883 11.0014 16.8234 11.0342C16.8586 11.0693 16.9148 11.135 16.9453 11.1795C17.018 11.2826 17.0766 11.3412 17.1797 11.4139C17.2242 11.4443 17.2898 11.5006 17.325 11.5357C17.3578 11.5709 17.3953 11.6014 17.407 11.6014C17.4164 11.6014 17.4633 11.6342 17.5078 11.6717C17.5523 11.7092 17.6039 11.742 17.6203 11.742C17.6344 11.742 17.6484 11.7514 17.6484 11.7654C17.6484 11.7771 17.6648 11.7889 17.6836 11.7889C17.7047 11.7889 17.7422 11.81 17.7703 11.8357C17.7984 11.8615 17.8359 11.8826 17.8523 11.8826C17.8688 11.8826 17.918 11.9037 17.9648 11.9295C18.0117 11.9553 18.0633 11.9764 18.082 11.9764C18.1008 11.9764 18.1172 11.9857 18.1172 11.9998C18.1172 12.0115 18.15 12.0232 18.1875 12.0232C18.2273 12.0232 18.2578 12.0326 18.2578 12.0467C18.2578 12.0584 18.2906 12.0701 18.3281 12.0701C18.368 12.0701 18.3984 12.0795 18.3984 12.0936C18.3984 12.1053 18.4406 12.117 18.4922 12.117C18.5438 12.117 18.5859 12.1264 18.5859 12.1404C18.5859 12.1521 18.6398 12.1639 18.7031 12.1639C18.7688 12.1639 18.8203 12.1732 18.8203 12.1873C18.8203 12.2201 19.7742 12.2201 19.793 12.1873C19.8 12.1732 19.8586 12.1639 19.9242 12.1639C19.9875 12.1639 20.0391 12.1521 20.0391 12.1404C20.0391 12.1264 20.0813 12.117 20.1328 12.117C20.1844 12.117 20.2266 12.1053 20.2266 12.0936C20.2266 12.0795 20.2594 12.0701 20.2969 12.0701C20.3367 12.0701 20.3672 12.0584 20.3672 12.0467C20.3672 12.0326 20.4 12.0232 20.4375 12.0232C20.4773 12.0232 20.5078 12.0115 20.5078 11.9998C20.5078 11.9857 20.5289 11.9764 20.5547 11.9764C20.5805 11.9764 20.6016 11.9646 20.6016 11.9529C20.6016 11.9389 20.6227 11.9295 20.6484 11.9295C20.6742 11.9295 20.6953 11.9178 20.6953 11.9061C20.6953 11.892 20.7094 11.8826 20.7258 11.8826C20.768 11.8826 20.8828 11.8264 20.8828 11.8053C20.8828 11.7959 20.9039 11.7889 20.9297 11.7889C20.9555 11.7889 20.9766 11.7771 20.9766 11.7654C20.9766 11.7514 20.9906 11.742 21.0094 11.742C21.0258 11.742 21.0727 11.7092 21.1125 11.6717C21.1547 11.6318 21.1969 11.6014 21.2109 11.6014C21.225 11.6014 21.2813 11.5545 21.3398 11.4982C21.3961 11.442 21.4734 11.3764 21.5109 11.3553C21.5484 11.3318 21.5977 11.2826 21.6211 11.2451C21.6422 11.2076 21.7078 11.1303 21.7641 11.074C21.8203 11.0154 21.8672 10.9568 21.8672 10.9381C21.8672 10.9217 21.8883 10.8936 21.9141 10.8748C21.9398 10.8561 21.9609 10.8256 21.9609 10.8045C21.9609 10.7834 21.982 10.7529 22.0078 10.7342C22.0336 10.7154 22.0547 10.6826 22.0547 10.6592C22.0547 10.6357 22.0664 10.617 22.0781 10.617C22.0922 10.617 22.1016 10.5959 22.1016 10.5701C22.1016 10.5443 22.1133 10.5232 22.125 10.5232C22.1391 10.5232 22.1484 10.5021 22.1484 10.4764C22.1484 10.4506 22.1602 10.4295 22.1719 10.4295C22.1859 10.4295 22.1953 10.4084 22.1953 10.3826C22.1953 10.3568 22.207 10.3357 22.2188 10.3357C22.2328 10.3357 22.2422 10.3146 22.2422 10.2912C22.2422 10.2654 22.2539 10.2373 22.2656 10.2303C22.2797 10.2232 22.2891 10.1904 22.2891 10.1576C22.2891 10.1271 22.3008 10.1014 22.3125 10.1014C22.3266 10.1014 22.3359 10.0709 22.3359 10.0334C22.3359 9.99355 22.3477 9.95605 22.3594 9.94902C22.3734 9.94199 22.3828 9.8998 22.3828 9.85527C22.3828 9.81074 22.3945 9.76855 22.4063 9.76152C22.4203 9.75449 22.4297 9.69121 22.4297 9.6209C22.4297 9.55059 22.4414 9.4873 22.4531 9.48027C22.4672 9.4709 22.4766 9.30449 22.4766 9.0584C22.4766 8.8123 22.4672 8.6459 22.4531 8.63652C22.4414 8.62949 22.4297 8.56387 22.4297 8.49355C22.4297 8.42324 22.4203 8.36699 22.4063 8.36699C22.3945 8.36699 22.3828 8.3248 22.3828 8.27324C22.3828 8.22168 22.3734 8.17949 22.3594 8.17949C22.3477 8.17949 22.3359 8.14434 22.3359 8.0998C22.3359 8.05527 22.3266 8.01074 22.3125 8.00371C22.3008 7.99668 22.2891 7.96855 22.2891 7.94277C22.2891 7.91934 22.2797 7.89824 22.2656 7.89824C22.2539 7.89824 22.2422 7.86543 22.2422 7.82793C22.2422 7.78809 22.2328 7.75762 22.2188 7.75762C22.207 7.75762 22.1953 7.73652 22.1953 7.71074C22.1953 7.68496 22.1859 7.66387 22.1719 7.66387C22.1602 7.66387 22.1484 7.64277 22.1484 7.61699C22.1484 7.59121 22.1391 7.57012 22.125 7.57012C22.1133 7.57012 22.1016 7.55137 22.1016 7.52793C22.1016 7.50449 22.0805 7.47168 22.0547 7.45293C22.0289 7.43418 22.0078 7.40137 22.0078 7.37793C22.0078 7.35449 21.9984 7.33574 21.9844 7.33574C21.9727 7.33574 21.9609 7.31934 21.9609 7.29824C21.9609 7.27715 21.9305 7.23027 21.8906 7.19512C21.8531 7.15996 21.8203 7.11777 21.8203 7.10371C21.8203 7.06855 21.2906 6.53887 21.2555 6.53887C21.2414 6.53887 21.1992 6.50606 21.1641 6.46856C21.1289 6.42871 21.082 6.39824 21.0609 6.39824C21.0398 6.39824 21.0234 6.38652 21.0234 6.37481C21.0234 6.36074 21.0047 6.35137 20.9813 6.35137C20.9578 6.35137 20.925 6.33027 20.9063 6.30449C20.8875 6.27871 20.8547 6.25762 20.8313 6.25762C20.8078 6.25762 20.7891 6.2459 20.7891 6.23418C20.7891 6.22012 20.768 6.21074 20.7422 6.21074C20.7164 6.21074 20.6953 6.19902 20.6953 6.18731C20.6953 6.17324 20.6742 6.16387 20.6484 6.16387C20.6227 6.16387 20.6016 6.15215 20.6016 6.14043C20.6016 6.12637 20.5711 6.11699 20.5313 6.11699C20.4938 6.11699 20.4609 6.10527 20.4609 6.09356C20.4609 6.07949 20.4305 6.07012 20.3906 6.07012C20.3531 6.07012 20.3203 6.0584 20.3203 6.04668C20.3203 6.03262 20.2898 6.02324 20.25 6.02324C20.2125 6.02324 20.1797 6.01152 20.1797 5.99981C20.1797 5.98574 20.1375 5.97637 20.0859 5.97637C20.0344 5.97637 19.9922 5.96465 19.9922 5.95293C19.9922 5.93887 19.9289 5.92949 19.8516 5.92949C19.7742 5.92949 19.7109 5.92012 19.7109 5.90606C19.7109 5.89199 19.5633 5.88262 19.3125 5.88262C19.0617 5.88262 18.9141 5.89199 18.9141 5.90606ZM19.5234 7.40605C19.5234 7.41777 19.5703 7.42949 19.6266 7.42949C19.6852 7.42949 19.7391 7.43887 19.7461 7.45293C19.7531 7.46465 19.7906 7.47637 19.8305 7.47637C19.868 7.47637 19.8984 7.48574 19.8984 7.4998C19.8984 7.51152 19.9195 7.52324 19.9453 7.52324C19.9711 7.52324 19.9922 7.53262 19.9922 7.54668C19.9922 7.5584 20.0133 7.57012 20.0391 7.57012C20.0648 7.57012 20.0859 7.57949 20.0859 7.59355C20.0859 7.60527 20.1047 7.61699 20.1281 7.61699C20.1516 7.61699 20.1844 7.63809 20.2031 7.66387C20.2219 7.68965 20.25 7.71074 20.2641 7.71074C20.3039 7.71074 20.6484 8.05293 20.6484 8.09043C20.6484 8.10918 20.6695 8.1373 20.6953 8.15605C20.7211 8.1748 20.7422 8.20762 20.7422 8.23105C20.7422 8.25449 20.7539 8.27324 20.7656 8.27324C20.7797 8.27324 20.7891 8.29434 20.7891 8.32012C20.7891 8.3459 20.8008 8.36699 20.8125 8.36699C20.8266 8.36699 20.8359 8.38809 20.8359 8.41387C20.8359 8.43965 20.8477 8.46074 20.8594 8.46074C20.8734 8.46074 20.8828 8.49121 20.8828 8.53105C20.8828 8.56855 20.8945 8.60137 20.9063 8.60137C20.9203 8.60137 20.9297 8.64355 20.9297 8.69277C20.9297 8.74434 20.9414 8.79355 20.9531 8.80059C20.9672 8.80762 20.9766 8.92246 20.9766 9.06074C20.9766 9.2084 20.9672 9.30449 20.9531 9.30449C20.9414 9.30449 20.9297 9.34668 20.9297 9.39824C20.9297 9.4498 20.9203 9.49199 20.9063 9.49199C20.8945 9.49199 20.8828 9.52246 20.8828 9.5623C20.8828 9.5998 20.8734 9.63262 20.8594 9.63262C20.8477 9.63262 20.8359 9.64668 20.8359 9.66309C20.8359 9.70527 20.7797 9.82012 20.7609 9.82012C20.7492 9.82012 20.7422 9.84121 20.7422 9.86699C20.7422 9.89277 20.7328 9.91387 20.7188 9.91387C20.707 9.91387 20.6953 9.93027 20.6953 9.95137C20.6953 9.97012 20.6555 10.0264 20.6063 10.0732C20.557 10.1201 20.5102 10.1787 20.5008 10.1998C20.4938 10.2232 20.475 10.242 20.4609 10.242C20.4445 10.242 20.393 10.2842 20.3438 10.3357C20.2945 10.3873 20.2359 10.4295 20.2172 10.4295C20.1961 10.4295 20.1797 10.4389 20.1797 10.4506C20.1797 10.4623 20.1609 10.4764 20.1398 10.4834C20.0836 10.5021 19.9594 10.5771 19.95 10.5982C19.9453 10.61 19.9055 10.617 19.8633 10.617C19.8188 10.617 19.7766 10.6264 19.7695 10.6404C19.7625 10.6521 19.725 10.6639 19.6852 10.6639C19.6477 10.6639 19.6172 10.6732 19.6172 10.6873C19.6172 10.7014 19.5 10.7107 19.3148 10.7107C19.1367 10.7107 19.0055 10.7014 18.9961 10.6873C18.9891 10.6732 18.9516 10.6639 18.9141 10.6639C18.8766 10.6639 18.8391 10.6521 18.832 10.6404C18.825 10.6264 18.7875 10.617 18.7477 10.617C18.7102 10.617 18.6797 10.6053 18.6797 10.5936C18.6797 10.5795 18.6586 10.5701 18.6328 10.5701C18.607 10.5701 18.5859 10.5607 18.5859 10.549C18.5859 10.5373 18.5672 10.5232 18.5461 10.5162C18.4758 10.4928 18.3703 10.4225 18.2742 10.3287C18.2227 10.2818 18.1664 10.242 18.15 10.242C18.1313 10.242 18.1172 10.2279 18.1172 10.2092C18.1172 10.1928 18.075 10.1342 18.0234 10.0803C17.9719 10.0287 17.9297 9.96777 17.9297 9.94902C17.9297 9.93027 17.9203 9.91387 17.9063 9.91387C17.8945 9.91387 17.8828 9.8998 17.8828 9.8834C17.8828 9.86699 17.8617 9.82949 17.8359 9.80137C17.8102 9.77324 17.7891 9.73574 17.7891 9.71699C17.7891 9.69824 17.7797 9.6748 17.7656 9.66777C17.7539 9.66074 17.7422 9.62324 17.7422 9.58574C17.7422 9.54824 17.7328 9.51074 17.7188 9.50371C17.707 9.49668 17.6953 9.45918 17.6953 9.41934C17.6953 9.38184 17.6859 9.35137 17.6719 9.35137C17.6578 9.35137 17.6484 9.23418 17.6484 9.04668C17.6484 8.85918 17.6578 8.74199 17.6719 8.74199C17.6859 8.74199 17.6953 8.70918 17.6953 8.67168C17.6953 8.63184 17.707 8.60137 17.7188 8.60137C17.7328 8.60137 17.7422 8.56855 17.7422 8.53105C17.7422 8.49121 17.7539 8.46074 17.7656 8.46074C17.7797 8.46074 17.7891 8.43965 17.7891 8.41387C17.7891 8.38809 17.8008 8.36699 17.8125 8.36699C17.8266 8.36699 17.8359 8.3459 17.8359 8.32012C17.8359 8.29434 17.8477 8.27324 17.8594 8.27324C17.8734 8.27324 17.8828 8.25215 17.8828 8.22637C17.8828 8.20059 17.8945 8.17949 17.9063 8.17949C17.9203 8.17949 17.9297 8.16543 17.9297 8.14668C17.9297 8.10449 18.2953 7.73418 18.382 7.68965C18.4172 7.6709 18.4453 7.64746 18.4453 7.63574C18.4453 7.62637 18.4664 7.61699 18.4922 7.61699C18.518 7.61699 18.5391 7.60527 18.5391 7.59355C18.5391 7.57949 18.5602 7.57012 18.5859 7.57012C18.6117 7.57012 18.6328 7.5584 18.6328 7.54668C18.6328 7.53262 18.6539 7.52324 18.6797 7.52324C18.7055 7.52324 18.7266 7.51152 18.7266 7.4998C18.7266 7.48574 18.7594 7.47637 18.7969 7.47637C18.8367 7.47637 18.8672 7.46465 18.8672 7.45293C18.8672 7.43887 18.9211 7.42949 18.9844 7.42949C19.05 7.42949 19.1016 7.41777 19.1016 7.40605C19.1016 7.39199 19.1883 7.38262 19.3125 7.38262C19.4367 7.38262 19.5234 7.39199 19.5234 7.40605Z" fill="none"/>
<path d="M9.69146 10.7344C9.68443 10.7461 9.58365 10.7578 9.46646 10.7578C9.34224 10.7578 9.25787 10.7672 9.25787 10.7812C9.25787 10.793 9.21568 10.8047 9.16412 10.8047C9.11255 10.8047 9.07037 10.8141 9.07037 10.8281C9.07037 10.8398 9.02818 10.8516 8.97896 10.8516C8.9274 10.8516 8.87818 10.8609 8.87115 10.875C8.86412 10.8867 8.8313 10.8984 8.79849 10.8984C8.76802 10.8984 8.74224 10.9078 8.74224 10.9219C8.74224 10.9336 8.71177 10.9453 8.67193 10.9453C8.63443 10.9453 8.60162 10.9547 8.60162 10.9688C8.60162 10.9805 8.57584 10.9922 8.54537 10.9922C8.51255 10.9922 8.47974 11.0016 8.47271 11.0156C8.46568 11.0273 8.43755 11.0391 8.41412 11.0391C8.39068 11.0391 8.36724 11.0461 8.36255 11.0555C8.35318 11.0789 8.22896 11.1539 8.17505 11.1727C8.15162 11.1797 8.13287 11.1937 8.13287 11.2055C8.13287 11.2172 8.11177 11.2266 8.08599 11.2266C8.06021 11.2266 8.03912 11.2359 8.03912 11.25C8.03912 11.2617 8.02505 11.2734 8.0063 11.2734C7.9899 11.2734 7.94302 11.3039 7.90318 11.3438C7.86099 11.3813 7.81646 11.4141 7.8024 11.4141C7.78599 11.4141 7.75787 11.4328 7.73677 11.4562C7.71568 11.4797 7.66177 11.5242 7.61724 11.5547C7.51646 11.625 7.24224 11.8969 7.24224 11.9273C7.24224 11.9391 7.20005 11.9906 7.14849 12.0445C7.09693 12.0961 7.05474 12.15 7.05474 12.1594C7.05474 12.1711 7.03599 12.1992 7.0149 12.225C6.99146 12.2484 6.95865 12.2977 6.9399 12.3328C6.92115 12.3703 6.89771 12.3984 6.88599 12.3984C6.87662 12.3984 6.86724 12.4195 6.86724 12.4453C6.86724 12.4711 6.86021 12.4922 6.84849 12.4922C6.83912 12.4922 6.81802 12.5227 6.80162 12.5625C6.77584 12.6164 6.75474 12.6328 6.70084 12.6328C6.66334 12.6328 6.63287 12.6211 6.63287 12.6094C6.63287 12.5953 6.5813 12.5859 6.51568 12.5859C6.4524 12.5859 6.39849 12.5742 6.39849 12.5625C6.39849 12.5461 5.81255 12.5391 4.68755 12.5391C3.56255 12.5391 2.97662 12.5461 2.97662 12.5625C2.97662 12.5742 2.92037 12.5859 2.85005 12.5859C2.77974 12.5859 2.71412 12.5953 2.70709 12.6094C2.70005 12.6211 2.66255 12.6328 2.62505 12.6328C2.58755 12.6328 2.55005 12.6422 2.54302 12.6562C2.53599 12.668 2.49146 12.6797 2.44693 12.6797C2.4024 12.6797 2.36724 12.6891 2.36724 12.7031C2.36724 12.7148 2.34146 12.7266 2.31099 12.7266C2.27818 12.7266 2.24537 12.7359 2.23834 12.75C2.2313 12.7617 2.20318 12.7734 2.1774 12.7734C2.15396 12.7734 2.13287 12.7828 2.13287 12.7969C2.13287 12.8086 2.11177 12.8203 2.08599 12.8203C2.06021 12.8203 2.03912 12.8297 2.03912 12.8438C2.03912 12.8555 2.01802 12.8672 1.99459 12.8672C1.9688 12.8672 1.94068 12.8766 1.93365 12.8906C1.92662 12.9023 1.90084 12.9141 1.8774 12.9141C1.8563 12.9141 1.81412 12.9352 1.78599 12.9609C1.75787 12.9867 1.72037 13.0078 1.69927 13.0078C1.68052 13.0078 1.66412 13.0172 1.66412 13.0312C1.66412 13.043 1.65005 13.0547 1.63365 13.0547C1.61724 13.0547 1.57974 13.0758 1.55162 13.1016C1.52349 13.1273 1.49302 13.1484 1.4813 13.1484C1.46959 13.1484 1.4274 13.1789 1.38755 13.2188C1.34537 13.2563 1.30318 13.2891 1.29146 13.2891C1.25865 13.2891 0.726617 13.8211 0.726617 13.8539C0.726617 13.868 0.696148 13.9102 0.656305 13.9453C0.618805 13.9805 0.585992 14.025 0.585992 14.0437C0.585992 14.0602 0.564898 14.0906 0.539117 14.1094C0.513336 14.1281 0.492242 14.1609 0.492242 14.1844C0.492242 14.2078 0.482867 14.2266 0.468805 14.2266C0.457086 14.2266 0.445367 14.2453 0.445367 14.2687C0.445367 14.2922 0.424273 14.325 0.398492 14.3437C0.372711 14.3625 0.351617 14.3906 0.351617 14.4047C0.351617 14.4281 0.316461 14.5078 0.232086 14.6766C0.220367 14.7 0.210992 14.7352 0.210992 14.7539C0.210992 14.7727 0.201617 14.7891 0.187555 14.7891C0.175836 14.7891 0.164117 14.8195 0.164117 14.8594C0.164117 14.8969 0.154742 14.9297 0.14068 14.9297C0.128961 14.9297 0.117242 14.9602 0.117242 15C0.117242 15.0375 0.107867 15.0703 0.0938048 15.0703C0.082086 15.0703 0.0703673 15.1125 0.0703673 15.1617C0.0703673 15.2156 0.0586485 15.2578 0.0422423 15.2625C-0.00228898 15.2789 -0.00228898 20.4398 0.0398985 20.4539C0.0563048 20.4609 0.0703673 20.4961 0.0703673 20.5336C0.0703673 20.5711 0.082086 20.6016 0.0938048 20.6016C0.107867 20.6016 0.117242 20.632 0.117242 20.6719C0.117242 20.7094 0.128961 20.7422 0.14068 20.7422C0.154742 20.7422 0.164117 20.7633 0.164117 20.7891C0.164117 20.8148 0.173492 20.8359 0.185211 20.8359C0.19693 20.8359 0.210992 20.8547 0.218024 20.8758C0.236774 20.9391 0.311774 21.0539 0.358649 21.0961C0.379742 21.1172 0.398492 21.1453 0.398492 21.1594C0.398492 21.1922 0.745367 21.5391 0.775836 21.5391C0.789898 21.5391 0.832086 21.5695 0.867242 21.6094C0.902398 21.6469 0.949273 21.6797 0.970367 21.6797C0.991461 21.6797 1.00787 21.6891 1.00787 21.7031C1.00787 21.7148 1.02896 21.7266 1.05474 21.7266C1.08052 21.7266 1.10162 21.7359 1.10162 21.75C1.10162 21.7617 1.12271 21.7734 1.14849 21.7734C1.17427 21.7734 1.19537 21.7828 1.19537 21.7969C1.19537 21.8086 1.21646 21.8203 1.24224 21.8203C1.26802 21.8203 1.28912 21.8297 1.28912 21.8438C1.28912 21.8555 1.31959 21.8672 1.35709 21.8672C1.39693 21.8672 1.43443 21.8789 1.44146 21.8906C1.44849 21.9047 1.48599 21.9141 1.52349 21.9141C1.56099 21.9141 1.59849 21.9258 1.60552 21.9375C1.61255 21.9516 1.69224 21.9609 1.7813 21.9609C1.87037 21.9609 1.95005 21.9703 1.95709 21.9844C1.96646 22.0008 5.33912 22.0078 12.0001 22.0078C18.661 22.0078 22.0336 22.0008 22.043 21.9844C22.0501 21.9703 22.1297 21.9609 22.2188 21.9609C22.3079 21.9609 22.3876 21.9492 22.3946 21.9375C22.4016 21.9234 22.4391 21.9141 22.4766 21.9141C22.5141 21.9141 22.5516 21.9023 22.5586 21.8906C22.5657 21.8766 22.6032 21.8672 22.643 21.8672C22.6805 21.8672 22.711 21.8555 22.711 21.8438C22.711 21.8297 22.7321 21.8203 22.7579 21.8203C22.7836 21.8203 22.8047 21.8086 22.8047 21.7969C22.8047 21.7828 22.8258 21.7734 22.8516 21.7734C22.8774 21.7734 22.8985 21.7617 22.8985 21.75C22.8985 21.7359 22.9196 21.7266 22.9454 21.7266C22.9711 21.7266 22.9922 21.7148 22.9922 21.7031C22.9922 21.6891 23.0086 21.6797 23.0297 21.6797C23.0508 21.6797 23.0977 21.6469 23.1329 21.6094C23.168 21.5695 23.2102 21.5391 23.2243 21.5391C23.2547 21.5391 23.6016 21.1922 23.6016 21.1594C23.6016 21.1453 23.6204 21.1172 23.6438 21.0961C23.6883 21.0539 23.7633 20.9391 23.7821 20.8781C23.7891 20.8547 23.8032 20.8359 23.8149 20.8359C23.8266 20.8359 23.836 20.8148 23.836 20.7891C23.836 20.7633 23.8477 20.7422 23.8594 20.7422C23.8735 20.7422 23.8829 20.7094 23.8829 20.6719C23.8829 20.632 23.8946 20.6016 23.9063 20.6016C23.9204 20.6016 23.9297 20.5711 23.9297 20.5336C23.9297 20.4961 23.9438 20.4609 23.9602 20.4539C24.0024 20.4398 24.0024 15.2789 23.9602 15.2625C23.9415 15.2578 23.9297 15.2156 23.9297 15.1617C23.9297 15.1125 23.9204 15.0703 23.9063 15.0703C23.8946 15.0703 23.8829 15.0375 23.8829 15C23.8829 14.9602 23.8735 14.9297 23.8594 14.9297C23.8477 14.9297 23.836 14.8969 23.836 14.8594C23.836 14.8195 23.8266 14.7891 23.8126 14.7891C23.8008 14.7891 23.7891 14.7727 23.7891 14.7539C23.7891 14.7352 23.7797 14.7 23.768 14.6766C23.6836 14.5078 23.6485 14.4281 23.6485 14.4047C23.6485 14.3906 23.6274 14.3625 23.6016 14.3437C23.5758 14.325 23.5547 14.2922 23.5547 14.2687C23.5547 14.2453 23.5454 14.2266 23.5313 14.2266C23.5196 14.2266 23.5079 14.2078 23.5079 14.1844C23.5079 14.1609 23.4868 14.1281 23.461 14.1094C23.4352 14.0906 23.4141 14.0602 23.4141 14.0437C23.4141 14.025 23.3836 13.9805 23.3438 13.9453C23.3063 13.9102 23.2735 13.868 23.2735 13.8539C23.2735 13.8211 22.7415 13.2891 22.7086 13.2891C22.6969 13.2891 22.6547 13.2563 22.6126 13.2188C22.5727 13.1789 22.5305 13.1484 22.5188 13.1484C22.5071 13.1484 22.4766 13.1273 22.4485 13.1016C22.4204 13.0758 22.3829 13.0547 22.3665 13.0547C22.3501 13.0547 22.336 13.043 22.336 13.0312C22.336 13.0172 22.3196 13.0078 22.3008 13.0078C22.2797 13.0078 22.2422 12.9867 22.2141 12.9609C22.186 12.9352 22.1438 12.9141 22.1227 12.9141C22.0993 12.9141 22.0735 12.9023 22.0665 12.8906C22.0594 12.8766 22.0313 12.8672 22.0055 12.8672C21.9821 12.8672 21.961 12.8555 21.961 12.8438C21.961 12.8297 21.9399 12.8203 21.9141 12.8203C21.8883 12.8203 21.8672 12.8086 21.8672 12.7969C21.8672 12.7828 21.8461 12.7734 21.8227 12.7734C21.7969 12.7734 21.7688 12.7617 21.7618 12.75C21.7547 12.7359 21.7219 12.7266 21.6891 12.7266C21.6586 12.7266 21.6329 12.7148 21.6329 12.7031C21.6329 12.6891 21.5977 12.6797 21.5532 12.6797C21.5086 12.6797 21.4641 12.668 21.4571 12.6562C21.4501 12.6422 21.4126 12.6328 21.3751 12.6328C21.3376 12.6328 21.3001 12.6211 21.293 12.6094C21.286 12.5953 21.2204 12.5859 21.1501 12.5859C21.0797 12.5859 21.0235 12.5742 21.0235 12.5625C21.0235 12.5461 20.4376 12.5391 19.3126 12.5391C18.1876 12.5391 17.6016 12.5461 17.6016 12.5625C17.6016 12.5742 17.5501 12.5859 17.4844 12.5859C17.4211 12.5859 17.3672 12.5953 17.3672 12.6094C17.3672 12.6211 17.3368 12.6328 17.2993 12.6328C17.2454 12.6328 17.2243 12.6164 17.1985 12.5625C17.1821 12.5227 17.161 12.4922 17.1516 12.4922C17.1399 12.4922 17.1329 12.4711 17.1329 12.4453C17.1329 12.4195 17.1235 12.3984 17.1141 12.3984C17.1024 12.3984 17.079 12.3703 17.0602 12.3328C17.0415 12.2977 17.0086 12.2484 16.9876 12.225C16.9641 12.1992 16.9454 12.1711 16.9454 12.1594C16.9454 12.15 16.9032 12.0961 16.8516 12.0445C16.8001 11.9906 16.7579 11.9391 16.7579 11.9273C16.7579 11.8969 16.4836 11.625 16.3829 11.5547C16.3383 11.5242 16.2844 11.4797 16.2633 11.4562C16.2422 11.4328 16.2141 11.4141 16.1977 11.4141C16.1836 11.4141 16.1391 11.3813 16.0969 11.3438C16.0571 11.3039 16.0102 11.2734 15.9938 11.2734C15.9751 11.2734 15.961 11.2617 15.961 11.25C15.961 11.2359 15.9399 11.2266 15.9141 11.2266C15.8883 11.2266 15.8672 11.2172 15.8672 11.2055C15.8672 11.1937 15.8485 11.1797 15.8274 11.1727C15.7711 11.1539 15.6469 11.0789 15.6376 11.0555C15.6329 11.0461 15.6094 11.0391 15.586 11.0391C15.5626 11.0391 15.5344 11.0273 15.5274 11.0156C15.5204 11.0016 15.4876 10.9922 15.4547 10.9922C15.4243 10.9922 15.3985 10.9805 15.3985 10.9688C15.3985 10.9547 15.368 10.9453 15.3282 10.9453C15.2907 10.9453 15.2579 10.9336 15.2579 10.9219C15.2579 10.9078 15.2321 10.8984 15.2016 10.8984C15.1688 10.8984 15.136 10.8867 15.129 10.875C15.1219 10.8609 15.0727 10.8516 15.0211 10.8516C14.9719 10.8516 14.9297 10.8398 14.9297 10.8281C14.9297 10.8141 14.8876 10.8047 14.836 10.8047C14.7844 10.8047 14.7422 10.793 14.7422 10.7812C14.7422 10.7672 14.6579 10.7578 14.5336 10.7578C14.4165 10.7578 14.3157 10.7461 14.3086 10.7344C14.2993 10.718 13.5047 10.7109 12.0001 10.7109C10.4954 10.7109 9.70084 10.718 9.69146 10.7344ZM14.1915 12.2344C14.1985 12.2461 14.2735 12.2578 14.3555 12.2578C14.4376 12.2578 14.5126 12.2672 14.5196 12.2812C14.5266 12.293 14.5711 12.3047 14.6157 12.3047C14.6602 12.3047 14.6954 12.3141 14.6954 12.3281C14.6954 12.3398 14.7282 12.3516 14.7657 12.3516C14.8055 12.3516 14.836 12.3609 14.836 12.375C14.836 12.3867 14.8571 12.3984 14.8829 12.3984C14.9086 12.3984 14.9297 12.4078 14.9297 12.4219C14.9297 12.4336 14.9508 12.4453 14.9766 12.4453C15.0024 12.4453 15.0235 12.4547 15.0235 12.4688C15.0235 12.4805 15.0446 12.4922 15.0704 12.4922C15.0961 12.4922 15.1172 12.5016 15.1172 12.5109C15.1172 12.5227 15.1454 12.5461 15.1805 12.5648C15.2157 12.5836 15.286 12.6375 15.3352 12.6844C15.3868 12.7336 15.4383 12.7734 15.4501 12.7734C15.4782 12.7734 15.586 12.8812 15.586 12.9094C15.586 12.9211 15.6258 12.9727 15.6751 13.0242C15.7665 13.1203 15.8368 13.2258 15.8602 13.2937C15.8672 13.3172 15.8813 13.3359 15.893 13.3359C15.9047 13.3359 15.9141 13.357 15.9141 13.3828C15.9141 13.4086 15.9258 13.4297 15.9376 13.4297C15.9516 13.4297 15.961 13.4508 15.961 13.4766C15.961 13.5023 15.9727 13.5234 15.9844 13.5234C15.9985 13.5234 16.0079 13.5539 16.0079 13.5914C16.0079 13.6312 16.0196 13.6687 16.0313 13.6758C16.0454 13.6828 16.0547 13.7203 16.0547 13.7578C16.0547 13.7953 16.0665 13.8328 16.0782 13.8398C16.0922 13.8469 16.1016 13.9266 16.1016 14.018C16.1016 14.1094 16.111 14.1797 16.1251 14.1797C16.1415 14.1797 16.1485 15.2508 16.1485 17.3438V20.5078H12.0001H7.85162V17.3438C7.85162 15.2508 7.85865 14.1797 7.87505 14.1797C7.88912 14.1797 7.89849 14.1094 7.89849 14.018C7.89849 13.9266 7.91021 13.8469 7.92193 13.8398C7.93599 13.8328 7.94537 13.7953 7.94537 13.7578C7.94537 13.7203 7.95709 13.6828 7.9688 13.6758C7.98287 13.6687 7.99224 13.6312 7.99224 13.5914C7.99224 13.5539 8.00396 13.5234 8.01568 13.5234C8.02974 13.5234 8.03912 13.5023 8.03912 13.4766C8.03912 13.4508 8.05084 13.4297 8.06255 13.4297C8.07662 13.4297 8.08599 13.4086 8.08599 13.3828C8.08599 13.357 8.09537 13.3359 8.10709 13.3359C8.1188 13.3359 8.13287 13.3172 8.1399 13.2937C8.16333 13.2258 8.23365 13.1203 8.3274 13.0242C8.37427 12.9727 8.41412 12.9211 8.41412 12.9094C8.41412 12.8812 8.52193 12.7734 8.55005 12.7734C8.56177 12.7734 8.61334 12.7336 8.6649 12.6844C8.71412 12.6375 8.78443 12.5836 8.81958 12.5648C8.85474 12.5461 8.88287 12.5227 8.88287 12.5109C8.88287 12.5016 8.90396 12.4922 8.92974 12.4922C8.95552 12.4922 8.97662 12.4805 8.97662 12.4688C8.97662 12.4547 8.99771 12.4453 9.02349 12.4453C9.04927 12.4453 9.07037 12.4336 9.07037 12.4219C9.07037 12.4078 9.09146 12.3984 9.11724 12.3984C9.14302 12.3984 9.16412 12.3867 9.16412 12.375C9.16412 12.3609 9.19693 12.3516 9.23443 12.3516C9.27427 12.3516 9.30474 12.3398 9.30474 12.3281C9.30474 12.3141 9.3399 12.3047 9.38443 12.3047C9.42896 12.3047 9.47349 12.293 9.48052 12.2812C9.48755 12.2672 9.56255 12.2578 9.64459 12.2578C9.72662 12.2578 9.80162 12.2461 9.80865 12.2344C9.81802 12.218 10.5751 12.2109 12.0001 12.2109C13.4251 12.2109 14.1821 12.218 14.1915 12.2344ZM6.21099 14.0625C6.21099 14.0742 6.2438 14.0859 6.2813 14.0859H6.35162V17.2969V20.5078H4.17193C2.73521 20.5078 1.99224 20.5008 1.99224 20.4844C1.99224 20.4703 1.96177 20.4609 1.92193 20.4609C1.88443 20.4609 1.85162 20.4492 1.85162 20.4375C1.85162 20.4234 1.83755 20.4141 1.82115 20.4141C1.77427 20.4141 1.57037 20.2148 1.57037 20.1703C1.57037 20.1492 1.56099 20.1328 1.54693 20.1328C1.53521 20.1328 1.52349 20.1117 1.52349 20.0859C1.52349 20.0602 1.51412 20.0391 1.50005 20.0391C1.48834 20.0391 1.47662 19.9922 1.47662 19.9359C1.47662 19.8773 1.46724 19.8234 1.45318 19.8164C1.43677 19.807 1.42974 19.1602 1.42974 17.9508C1.42974 16.7344 1.43677 16.1016 1.45318 16.1016C1.46724 16.1016 1.47662 16.0148 1.47662 15.8906C1.47662 15.7664 1.48599 15.6797 1.50005 15.6797C1.51412 15.6797 1.52349 15.6469 1.52349 15.6094C1.52349 15.5695 1.53521 15.5391 1.54693 15.5391C1.56099 15.5391 1.57037 15.5086 1.57037 15.4711C1.57037 15.4312 1.58209 15.3937 1.5938 15.3867C1.60787 15.3797 1.61724 15.3469 1.61724 15.3141C1.61724 15.2836 1.62896 15.2578 1.64068 15.2578C1.65474 15.2578 1.66412 15.2367 1.66412 15.2109C1.66412 15.1852 1.67584 15.1641 1.68755 15.1641C1.70162 15.1641 1.71099 15.143 1.71099 15.1172C1.71099 15.0914 1.72037 15.0703 1.72974 15.0703C1.74146 15.0703 1.7649 15.0422 1.78365 15.007C1.8024 14.9719 1.84459 14.9109 1.88209 14.8734C1.91724 14.8359 1.94537 14.7961 1.94537 14.7844C1.94537 14.7586 2.19615 14.5078 2.22193 14.5078C2.23365 14.5078 2.27584 14.475 2.31568 14.4375C2.35787 14.3977 2.40709 14.3672 2.42584 14.3672C2.44459 14.3672 2.46099 14.3555 2.46099 14.3437C2.46099 14.3297 2.47505 14.3203 2.49146 14.3203C2.50787 14.3203 2.54537 14.2992 2.57349 14.2734C2.60162 14.2477 2.63912 14.2266 2.66021 14.2266C2.67896 14.2266 2.69537 14.2148 2.69537 14.2031C2.69537 14.1891 2.72818 14.1797 2.76568 14.1797C2.80552 14.1797 2.83599 14.168 2.83599 14.1562C2.83599 14.1422 2.8688 14.1328 2.9063 14.1328C2.94615 14.1328 2.97662 14.1211 2.97662 14.1094C2.97662 14.0953 3.01177 14.0859 3.0563 14.0859C3.10084 14.0859 3.14537 14.0742 3.1524 14.0625C3.17349 14.0297 6.21099 14.0297 6.21099 14.0625ZM20.8477 14.0625C20.8547 14.0742 20.8993 14.0859 20.9438 14.0859C20.9883 14.0859 21.0235 14.0953 21.0235 14.1094C21.0235 14.1211 21.0563 14.1328 21.0938 14.1328C21.1336 14.1328 21.1641 14.1422 21.1641 14.1562C21.1641 14.168 21.1969 14.1797 21.2344 14.1797C21.2743 14.1797 21.3047 14.1891 21.3047 14.2031C21.3047 14.2148 21.3211 14.2266 21.3399 14.2266C21.361 14.2266 21.3985 14.2477 21.4266 14.2734C21.4547 14.2992 21.4922 14.3203 21.5086 14.3203C21.5251 14.3203 21.5391 14.3297 21.5391 14.3437C21.5391 14.3555 21.5555 14.3672 21.5743 14.3672C21.593 14.3672 21.6422 14.3977 21.6844 14.4375C21.7243 14.475 21.7665 14.5078 21.7782 14.5078C21.804 14.5078 22.0547 14.7586 22.0547 14.7844C22.0547 14.7961 22.0829 14.8359 22.1204 14.8734C22.1555 14.9109 22.1977 14.9719 22.2165 15.007C22.2352 15.0422 22.2586 15.0703 22.2704 15.0703C22.2797 15.0703 22.2891 15.0914 22.2891 15.1172C22.2891 15.143 22.3008 15.1641 22.3126 15.1641C22.3266 15.1641 22.336 15.1852 22.336 15.2109C22.336 15.2367 22.3477 15.2578 22.3594 15.2578C22.3735 15.2578 22.3829 15.2836 22.3829 15.3141C22.3829 15.3469 22.3946 15.3797 22.4063 15.3867C22.4204 15.3937 22.4297 15.4312 22.4297 15.4711C22.4297 15.5086 22.4415 15.5391 22.4532 15.5391C22.4672 15.5391 22.4766 15.5695 22.4766 15.6094C22.4766 15.6469 22.4883 15.6797 22.5001 15.6797C22.5141 15.6797 22.5235 15.7664 22.5235 15.8906C22.5235 16.0148 22.5329 16.1016 22.5469 16.1016C22.5633 16.1016 22.5704 16.7344 22.5704 17.9508C22.5704 19.1602 22.5633 19.807 22.5469 19.8164C22.5352 19.8234 22.5235 19.8773 22.5235 19.9359C22.5235 19.9922 22.5141 20.0391 22.5001 20.0391C22.4883 20.0391 22.4766 20.0602 22.4766 20.0859C22.4766 20.1117 22.4672 20.1328 22.4532 20.1328C22.4415 20.1328 22.4297 20.1492 22.4297 20.1703C22.4297 20.2148 22.2258 20.4141 22.179 20.4141C22.1626 20.4141 22.1485 20.4234 22.1485 20.4375C22.1485 20.4492 22.118 20.4609 22.0782 20.4609C22.0407 20.4609 22.0079 20.4703 22.0079 20.4844C22.0079 20.5008 21.2649 20.5078 19.8282 20.5078H17.6485V17.2969V14.0859H17.7188C17.7586 14.0859 17.7891 14.0742 17.7891 14.0625C17.7891 14.0461 18.3118 14.0391 19.3102 14.0391C20.3016 14.0391 20.8383 14.0461 20.8477 14.0625Z" fill="none"/>
</svg>
