<svg width="24" height="24" viewBox="0 0 24 24" fill="none" xmlns="http://www.w3.org/2000/svg">
<path d="M16.0254 20.5707L16.0257 17.357C16.0259 15.5818 14.5869 14.1426 12.8117 14.1426H5.61444C3.83951 14.1426 2.40059 15.5814 2.40039 17.3563L2.40002 20.5707M21.5997 20.5709L21.6 17.3571C21.6002 15.582 20.1612 14.1428 18.386 14.1428M15.4064 4.06051C16.1957 4.64615 16.7072 5.58501 16.7072 6.64334C16.7072 7.70167 16.1957 8.64052 15.4064 9.22616M12.4938 6.64316C12.4938 8.41824 11.0548 9.85722 9.27977 9.85722C7.50469 9.85722 6.06571 8.41824 6.06571 6.64316C6.06571 4.86809 7.50469 3.42911 9.27977 3.42911C11.0548 3.42911 12.4938 4.86809 12.4938 6.64316Z" stroke="none" stroke-width="2" stroke-linecap="round" stroke-linejoin="round"/>
</svg>
